<svg xmlns="http://www.w3.org/2000/svg" xmlns:xlink="http://www.w3.org/1999/xlink" xmlns:lucid="lucid" width="2142" height="1335"><g transform="translate(441 61.000000000000014)" lucid:page-tab-id="HWEp-vi-RSFO"><path d="M-500-500h2500v2000H-500z" fill="#fff"/><path d="M140 480h360v200H140z" stroke="#282c33" stroke-width="2" fill="#fff7a1"/><path d="M140 523.16h360m-360 91.8h360" stroke="#282c33" stroke-width="2" fill="none"/><use xlink:href="#a" transform="matrix(1,0,0,1,148,488) translate(138.20730251736111 22.16460503472222)"/><use xlink:href="#b" transform="matrix(1,0,0,1,152,531.1569010416666) translate(59.2025282118056 32.586154513888886)"/><use xlink:href="#c" transform="matrix(1,0,0,1,152,531.1569010416666) translate(80.36474609375004 32.586154513888886)"/><use xlink:href="#b" transform="matrix(1,0,0,1,152,531.1569010416666) translate(38.39648437500006 59.74305555555555)"/><use xlink:href="#d" transform="matrix(1,0,0,1,152,531.1569010416666) translate(59.5587022569445 59.74305555555555)"/><use xlink:href="#e" transform="matrix(1,0,0,1,152,622.970703125) translate(124.65635850694446 32.66460503472222)"/><use xlink:href="#f" transform="matrix(1,0,0,1,152,622.970703125) translate(130.96885850694446 32.66460503472222)"/><use xlink:href="#g" transform="matrix(1,0,0,1,152,622.970703125) translate(147.60492621527777 32.66460503472222)"/><path d="M719 480h360v417H719z" stroke="#282c33" stroke-width="2" fill="#fff7a1"/><path d="M719 523.16h360M719 696.44h360" stroke="#282c33" stroke-width="2" fill="none"/><use xlink:href="#h" transform="matrix(1,0,0,1,727,488) translate(146.95822482638889 22.16460503472222)"/><use xlink:href="#b" transform="matrix(1,0,0,1,731,531.1569010416666) translate(68.05208333333337 32.85080295138889)"/><use xlink:href="#i" transform="matrix(1,0,0,1,731,531.1569010416666) translate(89.21430121527781 32.85080295138889)"/><use xlink:href="#b" transform="matrix(1,0,0,1,731,531.1569010416666) translate(47.24603949652783 60.00770399305555)"/><use xlink:href="#j" transform="matrix(1,0,0,1,731,531.1569010416666) translate(68.40825737847227 60.00770399305555)"/><use xlink:href="#b" transform="matrix(1,0,0,1,731,531.1569010416666) translate(72.15630425347224 87.1646050347222)"/><use xlink:href="#k" transform="matrix(1,0,0,1,731,531.1569010416666) translate(93.31852213541669 87.1646050347222)"/><use xlink:href="#b" transform="matrix(1,0,0,1,731,531.1569010416666) translate(72.6933051215278 114.32150607638889)"/><use xlink:href="#l" transform="matrix(1,0,0,1,731,531.1569010416666) translate(93.85552300347224 114.32150607638889)"/><use xlink:href="#m" transform="matrix(1,0,0,1,731,531.1569010416666) translate(168 141.47840711805554)"/><use xlink:href="#n" transform="matrix(1,0,0,1,731,704.44140625) translate(115.53282335069446 32.772352430555564)"/><use xlink:href="#o" transform="matrix(1,0,0,1,731,704.44140625) translate(132.16889105902777 32.772352430555564)"/><use xlink:href="#n" transform="matrix(1,0,0,1,731,704.44140625) translate(127.65370008680557 59.92925347222222)"/><use xlink:href="#p" transform="matrix(1,0,0,1,731,704.44140625) translate(144.2897677951389 59.92925347222222)"/><use xlink:href="#n" transform="matrix(1,0,0,1,731,704.44140625) translate(123.35769314236111 87.08615451388889)"/><use xlink:href="#q" transform="matrix(1,0,0,1,731,704.44140625) translate(139.99376085069446 87.08615451388889)"/><use xlink:href="#n" transform="matrix(1,0,0,1,731,704.44140625) translate(132.07025824652777 114.24305555555554)"/><use xlink:href="#r" transform="matrix(1,0,0,1,731,704.44140625) translate(148.7063259548611 114.24305555555554)"/><use xlink:href="#n" transform="matrix(1,0,0,1,731,704.44140625) translate(112.16834852430557 141.3999565972222)"/><use xlink:href="#s" transform="matrix(1,0,0,1,731,704.44140625) translate(128.8044162326389 141.3999565972222)"/><use xlink:href="#n" transform="matrix(1,0,0,1,731,704.44140625) translate(102.70507812500001 168.55685763888886)"/><use xlink:href="#t" transform="matrix(1,0,0,1,731,704.44140625) translate(119.34114583333334 168.55685763888886)"/><path d="M140 977h360v296H140z" stroke="#282c33" stroke-width="2" fill="#f4d9ff"/><path d="M140 1020.16h360" stroke="#282c33" stroke-width="2" fill="none"/><use xlink:href="#u" transform="matrix(1,0,0,1,148,985) translate(101.45562065972223 22.16460503472222)"/><use xlink:href="#n" transform="matrix(1,0,0,1,152,1028.1569010416665) translate(117.66438802083334 72.35080295138889)"/><use xlink:href="#v" transform="matrix(1,0,0,1,152,1028.1569010416665) translate(134.30045572916669 72.35080295138889)"/><use xlink:href="#n" transform="matrix(1,0,0,1,152,1028.1569010416665) translate(85.32926432291669 99.50770399305554)"/><use xlink:href="#w" transform="matrix(1,0,0,1,152,1028.1569010416665) translate(101.96533203125001 99.50770399305554)"/><use xlink:href="#n" transform="matrix(1,0,0,1,152,1028.1569010416665) translate(92.96782769097223 126.6646050347222)"/><use xlink:href="#x" transform="matrix(1,0,0,1,152,1028.1569010416665) translate(109.60389539930556 126.6646050347222)"/><use xlink:href="#n" transform="matrix(1,0,0,1,152,1028.1569010416665) translate(108.11892361111111 153.82150607638886)"/><use xlink:href="#y" transform="matrix(1,0,0,1,152,1028.1569010416665) translate(124.75499131944444 153.82150607638886)"/><use xlink:href="#m" transform="matrix(1,0,0,1,152,1028.1569010416665) translate(168 180.97840711805554)"/><path d="M440 1213h60v60h-60v-60z" stroke="#fff" stroke-opacity="0" stroke-width="2" fill="#3b48cc"/><path d="M472.05 1254H471c-.44 0-.8-.35-.8-.8v-17.8c0-.45.37-.8.8-.8h9.46c.23 0 .43.1.6.27l2.4 2.9-1.14 1.02-2.22-2.6h-8.33v16.27h.28z" stroke="#fff" stroke-opacity="0" stroke-width="2" fill="#fff"/><path d="M486.66 1256.9h-12.94c-.43 0-.8-.35-.8-.8v-17.8c0-.45.37-.8.8-.8h9.98c.22 0 .4.07.55.23l2.96 3c.15.14.22.32.22.53v14.86c0 .43-.34.76-.76.78zm-12.17-1.5h11.4v-13.83l-2.52-2.5h-8.9z" stroke="#fff" stroke-opacity="0" stroke-width="2" fill="#fff"/><path d="M486.66 1242.82h-3.76c-.44 0-.8-.36-.8-.8v-3.76h1.54v3h2.98zM479.5 1252.72h-.5c-.4 0-.76-.15-1.02-.46-.33-.5-.44-1.02-.33-1.6-.05-1.43-.85-1.66-.85-1.66-.4-.15-.62-.62-.46-1.03.08-.23.24-.38.46-.47.07 0 .8-.3.8-1.7 0-.84.4-1.77 1.33-1.8h.53v1.54h-.26v.26c.06.93-.2 1.74-.8 2.46.6.72.86 1.53.8 2.46v.49h.34zM481.66 1252.72v-1.53h.3v-.28c-.07-.92.2-1.74.8-2.46-.6-.7-.86-1.53-.8-2.45v-.13-.35h-.35v-1.54h.5c.42 0 .77.16 1.03.47.33.5.44 1.02.33 1.6 0 1.36.8 1.6.8 1.64.36.1.57.43.56.8 0 .35-.23.64-.57.73-.06 0-.8.3-.8 1.7 0 .84-.4 1.78-1.33 1.8zM465.78 1234.76c-6.4 0-13.2-1.97-13.2-5.6s6.8-5.6 13.2-5.6c6.42 0 13.2 1.97 13.2 5.6s-6.8 5.6-13.2 5.6zm0-9.7c-6.86 0-11.67 2.15-11.67 4.1 0 1.9 4.82 4.05 11.68 4.05 6.87 0 11.68-2.13 11.68-4.05 0-1.94-4.8-4.1-11.68-4.1z" stroke="#fff" stroke-opacity="0" stroke-width="2" fill="#fff"/><path d="M477.45 1229.14h1.53v4.85h-1.53v-4.86zM465.78 1262.47c-6.4 0-13.2-1.96-13.2-5.6v-27.73h1.53v27.7c0 1.93 4.82 4.1 11.68 4.1 6.87 0 11.68-2.17 11.68-4.1H479c0 3.67-6.82 5.63-13.22 5.63z" stroke="#fff" stroke-opacity="0" stroke-width="2" fill="#fff"/><path d="M465.8 1244.45c-7.5 0-13.17-2.4-13.17-5.6h1.55c0 1.93 4.8 4.08 11.62 4.08 1.23 0 2.25-.06 3.46-.2l.17 1.53c-1.28.14-2.35.2-3.63.2zM465.8 1253.97c-7.5 0-13.17-2.4-13.17-5.6h1.55c0 1.93 4.8 4.08 11.63 4.08 1.22 0 2.25-.06 3.46-.2l.16 1.55c-1.25.13-2.35.17-3.6.17z" stroke="#fff" stroke-opacity="0" stroke-width="2" fill="#fff"/><path d="M1340 553.5h360v214h-360z" stroke="#282c33" stroke-width="2" fill="#f4d9ff"/><path d="M1340 596.66h360" stroke="#282c33" stroke-width="2" fill="none"/><use xlink:href="#z" transform="matrix(1,0,0,1,1348,561.5) translate(139.5607638888889 22.16460503472222)"/><use xlink:href="#n" transform="matrix(1,0,0,1,1352,604.6569010416666) translate(110.05322265625 72.58615451388889)"/><use xlink:href="#A" transform="matrix(1,0,0,1,1352,604.6569010416666) translate(126.68929036458333 72.58615451388889)"/><use xlink:href="#m" transform="matrix(1,0,0,1,1352,604.6569010416666) translate(168 99.74305555555554)"/><path d="M1639 694h60v60h-60v-60z" stroke="#fff" stroke-opacity="0" stroke-width="2" fill="#3b48cc"/><path d="M1671.05 735H1670c-.43 0-.8-.35-.8-.8v-17.8c0-.45.37-.8.8-.8h9.46c.23 0 .43.1.6.27l2.4 2.9-1.14 1.02-2.22-2.6h-8.33v16.27h.28z" stroke="#fff" stroke-opacity="0" stroke-width="2" fill="#fff"/><path d="M1685.66 737.9h-12.94c-.43 0-.8-.35-.8-.8v-17.8c0-.45.37-.8.8-.8h9.98c.22 0 .4.07.55.23l2.96 3c.15.14.22.32.22.53v14.86c0 .43-.34.76-.76.78zm-12.17-1.5h11.4v-13.83l-2.52-2.5h-8.9z" stroke="#fff" stroke-opacity="0" stroke-width="2" fill="#fff"/><path d="M1685.66 723.82h-3.76c-.44 0-.8-.36-.8-.8v-3.76h1.54v3h2.98zM1678.5 733.72h-.5c-.4 0-.76-.15-1.02-.46-.33-.5-.44-1.02-.33-1.6-.05-1.43-.85-1.66-.85-1.66-.4-.15-.62-.62-.46-1.03.08-.23.24-.38.46-.47.07 0 .8-.3.8-1.7 0-.84.4-1.77 1.33-1.8h.53v1.54h-.26v.26c.06.93-.2 1.74-.8 2.46.6.73.86 1.53.8 2.46v.49h.34zM1680.66 733.72v-1.53h.3v-.28c-.07-.92.2-1.74.8-2.45-.6-.72-.86-1.54-.8-2.46v-.13-.35h-.35v-1.54h.5c.42 0 .77.16 1.04.47.32.5.43 1.02.32 1.6 0 1.36.8 1.6.8 1.65.36.1.57.43.56.8 0 .35-.23.64-.57.73-.07 0-.8.3-.8 1.7 0 .84-.4 1.78-1.33 1.8zM1664.78 715.76c-6.4 0-13.2-1.97-13.2-5.6s6.8-5.6 13.2-5.6c6.42 0 13.2 1.97 13.2 5.6s-6.8 5.6-13.2 5.6zm0-9.7c-6.86 0-11.67 2.15-11.67 4.1 0 1.92 4.82 4.05 11.68 4.05 6.87 0 11.68-2.13 11.68-4.05 0-1.94-4.8-4.1-11.68-4.1z" stroke="#fff" stroke-opacity="0" stroke-width="2" fill="#fff"/><path d="M1676.45 710.14h1.53V715h-1.53v-4.86zM1664.78 743.47c-6.4 0-13.2-1.96-13.2-5.6v-27.73h1.53v27.7c0 1.93 4.82 4.1 11.68 4.1 6.87 0 11.68-2.17 11.68-4.1h1.53c0 3.67-6.82 5.63-13.22 5.63z" stroke="#fff" stroke-opacity="0" stroke-width="2" fill="#fff"/><path d="M1664.8 725.45c-7.5 0-13.17-2.4-13.17-5.6h1.55c0 1.92 4.8 4.08 11.62 4.08 1.23 0 2.25-.06 3.46-.2l.17 1.53c-1.28.14-2.35.2-3.63.2zM1664.8 734.97c-7.5 0-13.17-2.4-13.17-5.6h1.55c0 1.92 4.8 4.08 11.63 4.08 1.22 0 2.25-.06 3.46-.2l.16 1.55c-1.26.13-2.35.18-3.6.17z" stroke="#fff" stroke-opacity="0" stroke-width="2" fill="#fff"/><path d="M-440 831h360v323h-360z" stroke="#282c33" stroke-width="2" fill="#f4d9ff"/><path d="M-440 874.16h360" stroke="#282c33" stroke-width="2" fill="none"/><use xlink:href="#B" transform="matrix(1,0,0,1,-432,839) translate(123.73567708333334 22.16460503472222)"/><use xlink:href="#n" transform="matrix(1,0,0,1,-428,882.1569010416666) translate(97.86111111111111 72.27235243055557)"/><use xlink:href="#C" transform="matrix(1,0,0,1,-428,882.1569010416666) translate(114.49717881944444 72.27235243055557)"/><use xlink:href="#n" transform="matrix(1,0,0,1,-428,882.1569010416666) translate(78.61127387152783 99.42925347222223)"/><use xlink:href="#D" transform="matrix(1,0,0,1,-428,882.1569010416666) translate(95.24734157986116 99.42925347222223)"/><use xlink:href="#n" transform="matrix(1,0,0,1,-428,882.1569010416666) translate(94.00347222222226 126.58615451388889)"/><use xlink:href="#E" transform="matrix(1,0,0,1,-428,882.1569010416666) translate(110.63953993055559 126.58615451388889)"/><use xlink:href="#n" transform="matrix(1,0,0,1,-428,882.1569010416666) translate(102.8749457465278 153.74305555555554)"/><use xlink:href="#F" transform="matrix(1,0,0,1,-428,882.1569010416666) translate(119.51101345486113 153.74305555555554)"/><use xlink:href="#n" transform="matrix(1,0,0,1,-428,882.1569010416666) translate(63.2957899305556 180.8999565972222)"/><use xlink:href="#G" transform="matrix(1,0,0,1,-428,882.1569010416666) translate(79.93185763888893 180.8999565972222)"/><use xlink:href="#H" transform="matrix(1,0,0,1,-428,882.1569010416666) translate(105.97092013888891 208.05685763888886)"/><path d="M-140 1094h60v60h-60v-60z" stroke="#fff" stroke-opacity="0" stroke-width="2" fill="#3b48cc"/><path d="M-107.95 1135H-109c-.44 0-.8-.35-.8-.8v-17.8c0-.45.36-.8.8-.8h9.46c.23 0 .43.1.6.27l2.4 2.9-1.14 1.02-2.22-2.6h-8.33v16.27h.28z" stroke="#fff" stroke-opacity="0" stroke-width="2" fill="#fff"/><path d="M-93.34 1137.9h-12.94c-.43 0-.8-.35-.8-.8v-17.8c0-.45.37-.8.8-.8h9.98c.22 0 .4.07.55.23l2.96 3c.15.14.22.32.22.53v14.86c0 .43-.34.76-.76.78zm-12.17-1.5h11.4v-13.83l-2.52-2.5h-8.9z" stroke="#fff" stroke-opacity="0" stroke-width="2" fill="#fff"/><path d="M-93.34 1123.82h-3.75c-.44 0-.8-.36-.8-.8v-3.76h1.54v3h2.98zM-100.5 1133.72h-.5c-.4 0-.76-.15-1.02-.46-.33-.5-.44-1.02-.33-1.6-.05-1.43-.85-1.66-.85-1.66-.4-.15-.62-.62-.46-1.03.08-.23.24-.38.46-.47.07 0 .8-.3.8-1.7 0-.84.4-1.77 1.33-1.8h.53v1.54h-.26v.26c.06.93-.2 1.74-.8 2.46.6.72.86 1.53.8 2.46v.49h.34zM-98.34 1133.72v-1.53h.3v-.28c-.07-.92.2-1.74.8-2.46-.6-.7-.86-1.53-.8-2.45v-.13-.35h-.35v-1.54h.5c.42 0 .77.16 1.04.47.32.5.43 1.02.32 1.6 0 1.36.8 1.6.8 1.64.35.1.57.43.56.8 0 .35-.23.64-.57.73-.06 0-.8.3-.8 1.7 0 .84-.4 1.78-1.33 1.8zM-114.22 1115.76c-6.4 0-13.2-1.97-13.2-5.6s6.78-5.6 13.2-5.6c6.42 0 13.2 1.97 13.2 5.6s-6.8 5.6-13.2 5.6zm0-9.7c-6.86 0-11.67 2.15-11.67 4.1 0 1.9 4.82 4.05 11.68 4.05 6.87 0 11.68-2.13 11.68-4.05 0-1.94-4.8-4.1-11.68-4.1z" stroke="#fff" stroke-opacity="0" stroke-width="2" fill="#fff"/><path d="M-102.55 1110.14h1.53v4.85h-1.53v-4.86zM-114.22 1143.47c-6.4 0-13.2-1.96-13.2-5.6v-27.73h1.53v27.7c0 1.93 4.82 4.1 11.68 4.1 6.87 0 11.68-2.17 11.68-4.1h1.53c0 3.67-6.82 5.63-13.22 5.63z" stroke="#fff" stroke-opacity="0" stroke-width="2" fill="#fff"/><path d="M-114.2 1125.45c-7.5 0-13.17-2.4-13.17-5.6h1.55c0 1.93 4.8 4.08 11.62 4.08 1.23 0 2.25-.06 3.46-.2l.17 1.53c-1.28.14-2.35.2-3.63.2zM-114.2 1134.97c-7.5 0-13.17-2.4-13.17-5.6h1.55c0 1.93 4.8 4.08 11.63 4.08 1.22 0 2.25-.06 3.46-.2l.16 1.55c-1.25.13-2.35.17-3.6.17z" stroke="#fff" stroke-opacity="0" stroke-width="2" fill="#fff"/><path d="M320.48 959.62h-.96V842.08h.96zm0-144.7h-.96V681.5h.96z" stroke="#333" stroke-width=".05" fill="#333"/><path d="M320.48 681.5h-.96v-.5h.96z" fill="#333"/><path stroke="#333" stroke-width=".05" fill="#333"/><path d="M320 974.38l-4.63-14.26h9.26z" fill="#333"/><path d="M320 975.92l-5.3-16.28h10.6zm-3.98-15.33l3.98 12.25 3.98-12.26z" stroke="#333" stroke-width=".05" fill="#333"/><use xlink:href="#I" transform="matrix(1,0,0,1,288.1306423611111,814.9215494791666) translate(0.004999999999999005 21.74305555555555)"/><path d="M793.85 1125.47H517.38v-.94h276.47zm105.63-14.05h-.96V898.5h.96z" stroke="#333" stroke-width=".05" fill="#333"/><path d="M899.48 898.5h-.96v-.5h.96z" fill="#333"/><path stroke="#333" stroke-width=".05" fill="#333"/><path d="M516.88 1129.63l-14.26-4.63 14.26-4.63z" fill="#333"/><path d="M517.36 1130.3l-16.28-5.3 16.28-5.3zm-13.2-5.3l12.25 3.98v-7.96z" stroke="#333" stroke-width=".05" fill="#333"/><use xlink:href="#J" transform="matrix(1,0,0,1,793.8477280416299,1111.4215494791667) translate(0.0049999999999954525 21.74305555555555)"/><path d="M1137.23 688.98h-56.73V688h56.73zm185.4 0h-40.87V688h40.86z" stroke="#333" stroke-width=".05" fill="#333"/><path d="M1080.5 688.98h-.5V688h.5z" fill="#333"/><path stroke="#333" stroke-width=".05" fill="#333"/><path d="M1337.38 688.5l-14.26 4.63v-9.26z" fill="#333"/><path d="M1338.92 688.5l-16.28 5.3v-10.6zm-15.33 3.98l12.25-3.98-12.26-3.98z" stroke="#333" stroke-width=".05" fill="#333"/><use xlink:href="#K" transform="matrix(1,0,0,1,1137.2350260416667,674.9215494791666) translate(0.0049999999999954525 21.74305555555555)"/><path d="M719-60h360v269H719z" stroke="#282c33" stroke-width="2" fill="#f4d9ff"/><path d="M719-16.84h360" stroke="#282c33" stroke-width="2" fill="none"/><use xlink:href="#L" transform="matrix(1,0,0,1,727,-52.000000000000014) translate(131.34136284722223 22.16460503472222)"/><use xlink:href="#b" transform="matrix(1,0,0,1,731,-8.843098958333357) translate(68.05208333333337 72.42925347222223)"/><use xlink:href="#i" transform="matrix(1,0,0,1,731,-8.843098958333357) translate(89.21430121527781 72.42925347222223)"/><use xlink:href="#b" transform="matrix(1,0,0,1,731,-8.843098958333357) translate(47.24603949652783 99.58615451388889)"/><use xlink:href="#j" transform="matrix(1,0,0,1,731,-8.843098958333357) translate(68.40825737847227 99.58615451388889)"/><use xlink:href="#M" transform="matrix(1,0,0,1,731,-8.843098958333357) translate(168 126.74305555555554)"/><use xlink:href="#m" transform="matrix(1,0,0,1,731,-8.843098958333357) translate(168 153.8999565972222)"/><path d="M1019 149h60v60h-60v-60z" stroke="#fff" stroke-opacity="0" stroke-width="2" fill="#3b48cc"/><path d="M1051.05 190H1050c-.43 0-.8-.35-.8-.8v-17.8c0-.45.37-.8.8-.8h9.46c.23 0 .43.1.6.27l2.4 2.9-1.14 1.02-2.22-2.6h-8.33v16.27h.28z" stroke="#fff" stroke-opacity="0" stroke-width="2" fill="#fff"/><path d="M1065.66 192.9h-12.94c-.43 0-.8-.35-.8-.8v-17.8c0-.46.37-.8.8-.8h9.98c.22 0 .4.07.55.23l2.96 3c.15.14.22.32.22.53v14.86c0 .43-.34.76-.76.78zm-12.17-1.5h11.4v-13.83l-2.52-2.5h-8.9z" stroke="#fff" stroke-opacity="0" stroke-width="2" fill="#fff"/><path d="M1065.66 178.82h-3.76c-.44 0-.8-.36-.8-.8v-3.76h1.54v3h2.98zM1058.5 188.72h-.5c-.4 0-.76-.15-1.02-.46-.33-.5-.44-1.02-.33-1.6-.05-1.43-.85-1.66-.85-1.66-.4-.16-.62-.62-.46-1.03.08-.22.24-.38.46-.47.07 0 .8-.3.8-1.7 0-.84.4-1.77 1.33-1.8h.53v1.54h-.26v.26c.06.93-.2 1.74-.8 2.46.6.73.86 1.53.8 2.46v.49h.34zM1060.66 188.72v-1.53h.3v-.28c-.07-.92.2-1.74.8-2.45-.6-.72-.86-1.54-.8-2.46v-.13-.35h-.35v-1.54h.5c.42 0 .77.16 1.04.47.32.5.43 1.02.32 1.6 0 1.36.8 1.6.8 1.64.36.1.57.43.56.8 0 .35-.23.64-.57.73-.07 0-.8.3-.8 1.7 0 .84-.4 1.78-1.33 1.8zM1044.78 170.76c-6.4 0-13.2-1.97-13.2-5.6s6.8-5.6 13.2-5.6c6.42 0 13.2 1.97 13.2 5.6s-6.8 5.6-13.2 5.6zm0-9.7c-6.86 0-11.67 2.15-11.67 4.1 0 1.9 4.82 4.05 11.68 4.05 6.87 0 11.68-2.13 11.68-4.05 0-1.94-4.8-4.1-11.68-4.1z" stroke="#fff" stroke-opacity="0" stroke-width="2" fill="#fff"/><path d="M1056.45 165.14h1.53V170h-1.53v-4.86zM1044.78 198.47c-6.4 0-13.2-1.96-13.2-5.6v-27.73h1.53v27.7c0 1.93 4.82 4.1 11.68 4.1 6.87 0 11.68-2.17 11.68-4.1h1.53c0 3.67-6.82 5.63-13.22 5.63z" stroke="#fff" stroke-opacity="0" stroke-width="2" fill="#fff"/><path d="M1044.8 180.45c-7.5 0-13.17-2.4-13.17-5.6h1.55c0 1.93 4.8 4.08 11.62 4.08 1.23 0 2.25-.06 3.46-.2l.17 1.53c-1.28.14-2.35.2-3.63.2zM1044.8 189.97c-7.5 0-13.17-2.4-13.17-5.6h1.55c0 1.92 4.8 4.08 11.63 4.08 1.22 0 2.25-.06 3.46-.2l.16 1.55c-1.26.13-2.35.17-3.6.17z" stroke="#fff" stroke-opacity="0" stroke-width="2" fill="#fff"/><path d="M140-60h360v214H140z" stroke="#282c33" stroke-width="2" fill="#f4d9ff"/><path d="M140-16.84h360" stroke="#282c33" stroke-width="2" fill="none"/><g><use xlink:href="#N" transform="matrix(1,0,0,1,148,-52.000000000000014) translate(122.76578776041669 22.16460503472222)"/></g><g><use xlink:href="#b" transform="matrix(1,0,0,1,152,-8.843098958333357) translate(59.2025282118056 72.58615451388889)"/><use xlink:href="#c" transform="matrix(1,0,0,1,152,-8.843098958333357) translate(80.36474609375004 72.58615451388889)"/><use xlink:href="#b" transform="matrix(1,0,0,1,152,-8.843098958333357) translate(38.39648437500006 99.74305555555554)"/><use xlink:href="#d" transform="matrix(1,0,0,1,152,-8.843098958333357) translate(59.5587022569445 99.74305555555554)"/></g><path d="M440 94h60v60h-60V94z" stroke="#fff" stroke-opacity="0" stroke-width="2" fill="#3b48cc"/><path d="M472.05 135H471c-.44 0-.8-.35-.8-.8v-17.8c0-.45.37-.8.8-.8h9.46c.23 0 .43.1.6.27l2.4 2.9-1.14 1.02-2.22-2.6h-8.33v16.27h.28z" stroke="#fff" stroke-opacity="0" stroke-width="2" fill="#fff"/><path d="M486.66 137.9h-12.94c-.43 0-.8-.35-.8-.8v-17.8c0-.45.37-.8.8-.8h9.98c.22 0 .4.07.55.23l2.96 3c.15.14.22.32.22.53v14.86c0 .43-.34.76-.76.78zm-12.17-1.5h11.4v-13.83l-2.52-2.5h-8.9z" stroke="#fff" stroke-opacity="0" stroke-width="2" fill="#fff"/><path d="M486.66 123.82h-3.76c-.44 0-.8-.36-.8-.8v-3.76h1.54v3h2.98zM479.5 133.72h-.5c-.4 0-.76-.15-1.02-.46-.33-.5-.44-1.02-.33-1.6-.05-1.43-.85-1.66-.85-1.66-.4-.16-.62-.62-.46-1.03.08-.22.24-.38.46-.47.07 0 .8-.3.8-1.7 0-.84.4-1.77 1.33-1.8h.53v1.54h-.26v.26c.06.93-.2 1.74-.8 2.46.6.73.86 1.53.8 2.46v.49h.34zM481.66 133.72v-1.53h.3v-.28c-.07-.92.2-1.74.8-2.45-.6-.72-.86-1.54-.8-2.46v-.13-.35h-.35v-1.54h.5c.42 0 .77.16 1.03.47.33.5.44 1.02.33 1.6 0 1.36.8 1.6.8 1.64.36.1.57.43.56.8 0 .35-.23.64-.57.73-.06 0-.8.3-.8 1.7 0 .84-.4 1.78-1.33 1.8zM465.78 115.76c-6.4 0-13.2-1.97-13.2-5.6s6.8-5.6 13.2-5.6c6.42 0 13.2 1.97 13.2 5.6s-6.8 5.6-13.2 5.6zm0-9.7c-6.86 0-11.67 2.15-11.67 4.1 0 1.92 4.82 4.05 11.68 4.05 6.87 0 11.68-2.13 11.68-4.05 0-1.94-4.8-4.1-11.68-4.1z" stroke="#fff" stroke-opacity="0" stroke-width="2" fill="#fff"/><path d="M477.45 110.14h1.53V115h-1.53v-4.86zM465.78 143.47c-6.4 0-13.2-1.96-13.2-5.6v-27.73h1.53v27.7c0 1.93 4.82 4.1 11.68 4.1 6.87 0 11.68-2.17 11.68-4.1H479c0 3.67-6.82 5.63-13.22 5.63z" stroke="#fff" stroke-opacity="0" stroke-width="2" fill="#fff"/><path d="M465.8 125.45c-7.5 0-13.17-2.4-13.17-5.6h1.55c0 1.93 4.8 4.08 11.62 4.08 1.23 0 2.25-.06 3.46-.2l.17 1.53c-1.28.14-2.35.2-3.63.2zM465.8 134.97c-7.5 0-13.17-2.4-13.17-5.6h1.55c0 1.92 4.8 4.08 11.63 4.08 1.22 0 2.25-.06 3.46-.2l.16 1.55c-1.25.13-2.35.17-3.6.17z" stroke="#fff" stroke-opacity="0" stroke-width="2" fill="#fff"/><path d="M320 155.5v307.12" stroke="#1071e5" fill="none"/><path d="M320.48 155.5h-.96v-.5h.96z" stroke="#1071e5" stroke-width=".05" fill="#1071e5"/><path d="M320 477.38l-4.63-14.26h9.26z" stroke="#1071e5" fill="#1071e5"/><path d="M899 210.5v252.12" stroke="#1071e5" fill="none"/><path d="M899.48 210.5h-.96v-.5h.96z" stroke="#1071e5" stroke-width=".05" fill="#1071e5"/><path d="M899 477.38l-4.63-14.26h9.26z" stroke="#1071e5" fill="#1071e5"/><path d="M138.5 1124.53v.94H75.32v-.94z" stroke="#333" stroke-width=".05" fill="#333"/><path d="M139 1125.47h-.5v-.94h.5z" fill="#333"/><path stroke="#333" stroke-width=".05" fill="#333"/><path d="M-70.06 1126.7l-8.32-2.7 8.32-2.7z" fill="#333"/><path d="M-70.06 1121.8l-6.78 2.2 6.78 2.2v1l-9.86-3.2 9.86-3.2z" stroke="#333" stroke-width=".05" fill="#333"/><g><use xlink:href="#O" transform="matrix(1,0,0,1,-70.0614304315476,1110.4215494791667) translate(0.0049999999999954525 21.74305555555555)"/></g><path d="M-440 480h360v172h-360z" stroke="#282c33" stroke-width="2" fill="#fff7a1"/><path d="M-440 523.16h360m-360 64.65h360" stroke="#282c33" stroke-width="2" fill="none"/><g><use xlink:href="#P" transform="matrix(1,0,0,1,-432,488) translate(82.1071506076389 22.16460503472222)"/></g><g><use xlink:href="#n" transform="matrix(1,0,0,1,-428,595.8138020833333) translate(64.68212890625003 32.66460503472222)"/><use xlink:href="#Q" transform="matrix(1,0,0,1,-428,595.8138020833333) translate(81.31819661458336 32.66460503472222)"/></g><path d="M-259.52 813.62h-.96V729.4h.96zm0-111.38h-.96V653.5h.96z" stroke="#333" stroke-width=".05" fill="#333"/><path d="M-259.52 653.5h-.96v-.5h.96z" fill="#333"/><path stroke="#333" stroke-width=".05" fill="#333"/><path d="M-260 828.38l-4.63-14.26h9.26z" fill="#333"/><path d="M-260 829.92l-5.3-16.28h10.6zm-3.98-15.33l3.98 12.25 3.98-12.26z" stroke="#333" stroke-width=".05" fill="#333"/><g><use xlink:href="#R" transform="matrix(1,0,0,1,-348.09006076388886,702.2355336480321) translate(0.0049999999999954525 21.74305555555555)"/></g><defs><path fill="#282c33" d="M52 0l541-1490h220L1361 0h-200l-149-416H398L254 0H52zm404-582h497c-103-290-145-390-251-756-108 377-145 460-246 756" id="S"/><path fill="#282c33" d="M577 24c-279 0-473-224-473-580 0-354 195-576 474-576 218 0 287 134 324 193h14v-551h180V0H922v-173h-20C865-111 790 24 577 24zm27-161c203 0 314-172 314-421 0-247-108-413-314-413-212 0-317 181-317 413 0 235 108 421 317 421" id="T"/><path fill="#282c33" d="M158 0v-1118h175l1 205c55-151 181-225 313-225 147 0 245 90 285 228 53-141 190-228 352-228 194 0 352 125 352 384V0h-181v-749c0-161-105-225-225-225-151 0-243 103-243 244V0H807v-767c0-124-93-207-219-207-131 0-250 92-250 270V0H158" id="U"/><path fill="#282c33" d="M158 0v-1118h180V0H158zm91-1301c-68 0-125-53-125-119s57-119 125-119c69 0 126 53 126 119s-57 119-126 119" id="V"/><path fill="#282c33" d="M338-670V0H158v-1118h173l1 207c72-158 192-221 342-221 226 0 378 139 378 422V0H872v-695c0-172-96-275-252-275-161 0-282 109-282 300" id="W"/><g id="a"><use transform="matrix(0.010959201388888886,0,0,0.010959201388888886,0,0)" xlink:href="#S"/><use transform="matrix(0.010959201388888886,0,0,0.010959201388888886,15.485351562499996,0)" xlink:href="#T"/><use transform="matrix(0.010959201388888886,0,0,0.010959201388888886,29.22819010416666,0)" xlink:href="#U"/><use transform="matrix(0.010959201388888886,0,0,0.010959201388888886,48.88899739583332,0)" xlink:href="#V"/><use transform="matrix(0.010959201388888886,0,0,0.010959201388888886,54.32476128472221,0)" xlink:href="#W"/></g><path fill="#282c33" d="M593-100v-404H195v-159h398v-403h169v403h398v159H762v404H593" id="X"/><use transform="matrix(0.010959201388888886,0,0,0.010959201388888886,0,0)" xlink:href="#X" id="b"/><path fill="#282c33" d="M471 26C259 26 90-98 90-318c0-256 228-303 435-329 202-27 287-16 287-108 0-139-79-219-234-219-161 0-248 86-283 164l-173-57c86-203 278-265 451-265 150 0 419 46 419 395V0H815v-152h-12C765-73 660 26 471 26zm31-159c199 0 310-134 310-271v-155c-30 35-226 55-295 64-131 17-246 59-246 186 0 116 97 176 231 176" id="Y"/><path fill="#282c33" d="M180 0v-1490h224l606 953c40 63 108 177 176 312-27-437-7-821-13-1265h190V0h-226C860-448 622-778 356-1262c27 476 11 792 15 1262H180" id="Z"/><path fill="#282c33" d="M628 24c-324 0-524-230-524-574 0-343 198-582 503-582 237 0 487 146 487 559v75H286c9 234 145 362 343 362 132 0 231-58 273-172l174 48C1024-91 857 24 628 24zM287-650h624c-17-190-120-322-304-322-192 0-309 151-320 322" id="aa"/><path fill="#282c33" d="M295 13c-75 0-135-60-135-135s60-135 135-135 135 60 135 135S370 13 295 13zm0-809c-75 0-135-60-135-135s60-135 135-135 135 60 135 135-60 135-135 135" id="ab"/><path fill="#282c33" d="M657 26c-323 0-524-166-541-416h195c15 169 171 246 346 246 202 0 356-106 356-265 5-203-294-238-475-293-239-73-380-191-380-389 0-252 224-419 512-419 294 0 499 171 508 396H992c-17-145-151-228-328-228-193 0-321 102-321 242 0 156 175 211 284 241l149 41c160 44 422 134 422 412 0 244-197 432-541 432" id="ac"/><path fill="#282c33" d="M598-1118v154H368v674c0 100 37 144 132 144 23 0 62-6 92-12L629-6c-37 13-88 20-134 20-193 0-307-107-307-290v-688H20v-154h168v-266h180v266h230" id="ad"/><path fill="#282c33" d="M158 0v-1118h174v172h12c41-113 157-188 290-188 26 0 70 2 91 3v181c-11-2-60-10-108-10-161 0-279 109-279 260V0H158" id="ae"/><path fill="#282c33" d="M611 442c-248 0-391-105-460-228l146-94c47 65 117 165 314 165 178 0 307-82 307-266v-224h-17C863-141 792-18 576-18c-268 0-472-195-472-546 0-346 197-568 476-568 216 0 288 133 326 193h17v-179h175V29c0 289-215 413-487 413zm-5-620c203 0 314-146 314-390 0-237-108-403-314-403-213 0-319 180-319 403 0 230 109 390 319 390" id="af"/><g id="c"><use transform="matrix(0.010959201388888886,0,0,0.010959201388888886,0,0)" xlink:href="#Y"/><use transform="matrix(0.010959201388888886,0,0,0.010959201388888886,12.60308159722222,0)" xlink:href="#T"/><use transform="matrix(0.010959201388888886,0,0,0.010959201388888886,26.34592013888889,0)" xlink:href="#U"/><use transform="matrix(0.010959201388888886,0,0,0.010959201388888886,46.00672743055554,0)" xlink:href="#V"/><use transform="matrix(0.010959201388888886,0,0,0.010959201388888886,51.442491319444436,0)" xlink:href="#W"/><use transform="matrix(0.010959201388888886,0,0,0.010959201388888886,64.70312499999999,0)" xlink:href="#Z"/><use transform="matrix(0.010959201388888886,0,0,0.010959201388888886,81.61317274305554,0)" xlink:href="#Y"/><use transform="matrix(0.010959201388888886,0,0,0.010959201388888886,94.21625434027776,0)" xlink:href="#U"/><use transform="matrix(0.010959201388888886,0,0,0.010959201388888886,113.87706163194441,0)" xlink:href="#aa"/><use transform="matrix(0.010959201388888886,0,0,0.010959201388888886,126.96234809027774,0)" xlink:href="#ab"/><use transform="matrix(0.010959201388888886,0,0,0.010959201388888886,133.42827690972217,0)" xlink:href="#ac"/><use transform="matrix(0.010959201388888886,0,0,0.010959201388888886,147.82866753472217,0)" xlink:href="#ad"/><use transform="matrix(0.010959201388888886,0,0,0.010959201388888886,155.17133246527771,0)" xlink:href="#ae"/><use transform="matrix(0.010959201388888886,0,0,0.010959201388888886,163.97157118055551,0)" xlink:href="#V"/><use transform="matrix(0.010959201388888886,0,0,0.010959201388888886,169.4073350694444,0)" xlink:href="#W"/><use transform="matrix(0.010959201388888886,0,0,0.010959201388888886,182.66796874999997,0)" xlink:href="#af"/></g><path fill="#282c33" d="M180 0v-1490h510c348 0 508 209 508 474 0 266-160 477-507 477H370V0H180zm190-706h312c236 0 327-133 327-310 0-176-91-307-329-307H370v617" id="ag"/><path fill="#282c33" d="M538 24C308 24 148-78 108-271l171-41c32 123 123 178 257 178 156 0 256-77 256-169 0-77-54-128-164-154l-186-44c-203-48-300-148-300-305 0-192 176-326 414-326 230 0 351 112 402 269l-163 42c-31-80-94-158-238-158-133 0-233 69-233 162 0 83 57 129 188 160l169 40c203 48 298 149 298 302 0 196-179 339-441 339" id="ah"/><path fill="#282c33" d="M409 0L70-1118h191c89 329 165 560 243 925 75-353 154-601 240-925h192c85 325 161 564 235 922 77-354 157-598 244-922h191L1267 0h-179c-86-307-176-590-250-913C763-588 675-308 588 0H409" id="ai"/><path fill="#282c33" d="M613 24c-304 0-509-231-509-576 0-350 205-580 509-580 305 0 511 230 511 580 0 345-206 576-511 576zm0-161c226 0 329-195 329-415 0-222-103-419-329-419-223 0-326 196-326 419 0 220 103 415 326 415" id="aj"/><g id="d"><use transform="matrix(0.010959201388888886,0,0,0.010959201388888886,0,0)" xlink:href="#Y"/><use transform="matrix(0.010959201388888886,0,0,0.010959201388888886,12.60308159722222,0)" xlink:href="#T"/><use transform="matrix(0.010959201388888886,0,0,0.010959201388888886,26.34592013888889,0)" xlink:href="#U"/><use transform="matrix(0.010959201388888886,0,0,0.010959201388888886,46.00672743055554,0)" xlink:href="#V"/><use transform="matrix(0.010959201388888886,0,0,0.010959201388888886,51.442491319444436,0)" xlink:href="#W"/><use transform="matrix(0.010959201388888886,0,0,0.010959201388888886,64.70312499999999,0)" xlink:href="#ag"/><use transform="matrix(0.010959201388888886,0,0,0.010959201388888886,79.03776041666664,0)" xlink:href="#Y"/><use transform="matrix(0.010959201388888886,0,0,0.010959201388888886,91.64084201388884,0)" xlink:href="#ah"/><use transform="matrix(0.010959201388888886,0,0,0.010959201388888886,103.48773871527773,0)" xlink:href="#ah"/><use transform="matrix(0.010959201388888886,0,0,0.010959201388888886,115.33463541666661,0)" xlink:href="#ai"/><use transform="matrix(0.010959201388888886,0,0,0.010959201388888886,133.29676649305551,0)" xlink:href="#aj"/><use transform="matrix(0.010959201388888886,0,0,0.010959201388888886,146.75466579861106,0)" xlink:href="#ae"/><use transform="matrix(0.010959201388888886,0,0,0.010959201388888886,154.83159722222217,0)" xlink:href="#T"/><use transform="matrix(0.010959201388888886,0,0,0.010959201388888886,168.57443576388883,0)" xlink:href="#ab"/><use transform="matrix(0.010959201388888886,0,0,0.010959201388888886,175.04036458333326,0)" xlink:href="#ac"/><use transform="matrix(0.010959201388888886,0,0,0.010959201388888886,189.44075520833326,0)" xlink:href="#ad"/><use transform="matrix(0.010959201388888886,0,0,0.010959201388888886,196.7834201388888,0)" xlink:href="#ae"/><use transform="matrix(0.010959201388888886,0,0,0.010959201388888886,205.58365885416663,0)" xlink:href="#V"/><use transform="matrix(0.010959201388888886,0,0,0.010959201388888886,211.01942274305546,0)" xlink:href="#W"/><use transform="matrix(0.010959201388888886,0,0,0.010959201388888886,224.28005642361103,0)" xlink:href="#af"/></g><path fill="#282c33" d="M798-719v166H144v-166h654" id="ak"/><use transform="matrix(0.010959201388888886,0,0,0.010959201388888886,0,0)" xlink:href="#ak" id="f"/><path fill="#282c33" d="M783 20c-382 0-661-292-661-764 0-473 279-766 661-766 302 0 548 182 601 489h-190c-42-204-217-313-411-313-268 0-476 208-476 590 0 381 209 588 476 588 195 0 369-110 411-313h190c-52 303-296 489-601 489" id="al"/><path fill="#282c33" d="M180 0v-1490h510c348 0 508 194 508 460 0 198-88 351-276 417L1256 0h-220L726-579c-117 2-238 0-356 1V0H180zm190-747h312c235 0 327-108 327-283 0-177-92-293-329-293H370v576" id="am"/><path fill="#282c33" d="M763 24c-353 0-583-224-583-531v-983h190v968c0 214 149 370 393 370 243 0 391-156 391-370v-968h190v983c0 307-230 531-581 531" id="an"/><path fill="#282c33" d="M645 0H180v-1490h484c435 0 692 280 692 742 0 466-257 748-711 748zM370-168h263c363 0 539-218 539-580 0-358-176-574-521-574H370v1154" id="ao"/><g id="g"><use transform="matrix(0.010959201388888886,0,0,0.010959201388888886,0,0)" xlink:href="#al"/><use transform="matrix(0.010959201388888886,0,0,0.010959201388888886,16.394965277777775,0)" xlink:href="#am"/><use transform="matrix(0.010959201388888886,0,0,0.010959201388888886,30.839192708333325,0)" xlink:href="#an"/><use transform="matrix(0.010959201388888886,0,0,0.010959201388888886,47.541015624999986,0)" xlink:href="#ao"/></g><g id="h"><use transform="matrix(0.010959201388888886,0,0,0.010959201388888886,0,0)" xlink:href="#an"/><use transform="matrix(0.010959201388888886,0,0,0.010959201388888886,16.701822916666664,0)" xlink:href="#ah"/><use transform="matrix(0.010959201388888886,0,0,0.010959201388888886,28.54871961805555,0)" xlink:href="#aa"/><use transform="matrix(0.010959201388888886,0,0,0.010959201388888886,41.63400607638888,0)" xlink:href="#ae"/></g><path fill="#282c33" d="M537 14c-226 0-379-139-379-422v-710h180v695c0 172 97 275 253 275 160 0 281-109 281-300v-670h181V0H879v-209C806-46 684 14 537 14" id="ap"/><g id="i"><use transform="matrix(0.010959201388888886,0,0,0.010959201388888886,0,0)" xlink:href="#ap"/><use transform="matrix(0.010959201388888886,0,0,0.010959201388888886,13.271592881944441,0)" xlink:href="#ah"/><use transform="matrix(0.010959201388888886,0,0,0.010959201388888886,25.11848958333333,0)" xlink:href="#aa"/><use transform="matrix(0.010959201388888886,0,0,0.010959201388888886,38.20377604166666,0)" xlink:href="#ae"/><use transform="matrix(0.010959201388888886,0,0,0.010959201388888886,47.00401475694442,0)" xlink:href="#Z"/><use transform="matrix(0.010959201388888886,0,0,0.010959201388888886,63.91406249999998,0)" xlink:href="#Y"/><use transform="matrix(0.010959201388888886,0,0,0.010959201388888886,76.5171440972222,0)" xlink:href="#U"/><use transform="matrix(0.010959201388888886,0,0,0.010959201388888886,96.17795138888887,0)" xlink:href="#aa"/><use transform="matrix(0.010959201388888886,0,0,0.010959201388888886,109.26323784722217,0)" xlink:href="#ab"/><use transform="matrix(0.010959201388888886,0,0,0.010959201388888886,115.72916666666661,0)" xlink:href="#ac"/><use transform="matrix(0.010959201388888886,0,0,0.010959201388888886,130.12955729166663,0)" xlink:href="#ad"/><use transform="matrix(0.010959201388888886,0,0,0.010959201388888886,137.47222222222217,0)" xlink:href="#ae"/><use transform="matrix(0.010959201388888886,0,0,0.010959201388888886,146.27246093749997,0)" xlink:href="#V"/><use transform="matrix(0.010959201388888886,0,0,0.010959201388888886,151.70822482638886,0)" xlink:href="#W"/><use transform="matrix(0.010959201388888886,0,0,0.010959201388888886,164.9688585069444,0)" xlink:href="#af"/></g><g id="j"><use transform="matrix(0.010959201388888886,0,0,0.010959201388888886,0,0)" xlink:href="#ap"/><use transform="matrix(0.010959201388888886,0,0,0.010959201388888886,13.271592881944441,0)" xlink:href="#ah"/><use transform="matrix(0.010959201388888886,0,0,0.010959201388888886,25.11848958333333,0)" xlink:href="#aa"/><use transform="matrix(0.010959201388888886,0,0,0.010959201388888886,38.20377604166666,0)" xlink:href="#ae"/><use transform="matrix(0.010959201388888886,0,0,0.010959201388888886,47.00401475694442,0)" xlink:href="#ag"/><use transform="matrix(0.010959201388888886,0,0,0.010959201388888886,61.3386501736111,0)" xlink:href="#Y"/><use transform="matrix(0.010959201388888886,0,0,0.010959201388888886,73.94173177083331,0)" xlink:href="#ah"/><use transform="matrix(0.010959201388888886,0,0,0.010959201388888886,85.7886284722222,0)" xlink:href="#ah"/><use transform="matrix(0.010959201388888886,0,0,0.010959201388888886,97.63552517361109,0)" xlink:href="#ai"/><use transform="matrix(0.010959201388888886,0,0,0.010959201388888886,115.59765624999997,0)" xlink:href="#aj"/><use transform="matrix(0.010959201388888886,0,0,0.010959201388888886,129.05555555555551,0)" xlink:href="#ae"/><use transform="matrix(0.010959201388888886,0,0,0.010959201388888886,137.13248697916663,0)" xlink:href="#T"/><use transform="matrix(0.010959201388888886,0,0,0.010959201388888886,150.8753255208333,0)" xlink:href="#ab"/><use transform="matrix(0.010959201388888886,0,0,0.010959201388888886,157.34125434027771,0)" xlink:href="#ac"/><use transform="matrix(0.010959201388888886,0,0,0.010959201388888886,171.74164496527771,0)" xlink:href="#ad"/><use transform="matrix(0.010959201388888886,0,0,0.010959201388888886,179.08430989583326,0)" xlink:href="#ae"/><use transform="matrix(0.010959201388888886,0,0,0.010959201388888886,187.88454861111106,0)" xlink:href="#V"/><use transform="matrix(0.010959201388888886,0,0,0.010959201388888886,193.32031249999994,0)" xlink:href="#W"/><use transform="matrix(0.010959201388888886,0,0,0.010959201388888886,206.58094618055546,0)" xlink:href="#af"/></g><path fill="#282c33" d="M158 418v-1536h174v179h20c37-59 106-193 324-193 279 0 474 222 474 576 0 356-194 580-473 580-213 0-288-135-325-197h-14v591H158zm492-555c209 0 317-186 317-421 0-232-105-413-317-413-206 0-314 166-314 413 0 249 111 421 314 421" id="aq"/><path fill="#282c33" d="M677 24c-213 0-288-135-325-197h-20V0H158v-1490h180v551h14c37-59 106-193 324-193 279 0 474 222 474 576 0 356-194 580-473 580zm-27-161c209 0 317-186 317-421 0-232-105-413-317-413-206 0-314 166-314 413 0 249 111 421 314 421" id="ar"/><path fill="#282c33" d="M338-1490V0H158v-1490h180" id="as"/><g id="k"><use transform="matrix(0.010959201388888886,0,0,0.010959201388888886,0,0)" xlink:href="#aq"/><use transform="matrix(0.010959201388888886,0,0,0.010959201388888886,13.742838541666664,0)" xlink:href="#aj"/><use transform="matrix(0.010959201388888886,0,0,0.010959201388888886,27.200737847222214,0)" xlink:href="#ah"/><use transform="matrix(0.010959201388888886,0,0,0.010959201388888886,39.0476345486111,0)" xlink:href="#ad"/><use transform="matrix(0.010959201388888886,0,0,0.010959201388888886,46.39029947916666,0)" xlink:href="#V"/><use transform="matrix(0.010959201388888886,0,0,0.010959201388888886,51.82606336805554,0)" xlink:href="#ad"/><use transform="matrix(0.010959201388888886,0,0,0.010959201388888886,59.1687282986111,0)" xlink:href="#V"/><use transform="matrix(0.010959201388888886,0,0,0.010959201388888886,64.60449218749999,0)" xlink:href="#aj"/><use transform="matrix(0.010959201388888886,0,0,0.010959201388888886,78.06239149305554,0)" xlink:href="#W"/><use transform="matrix(0.010959201388888886,0,0,0.010959201388888886,91.32302517361109,0)" xlink:href="#ab"/><use transform="matrix(0.010959201388888886,0,0,0.010959201388888886,97.78895399305553,0)" xlink:href="#T"/><use transform="matrix(0.010959201388888886,0,0,0.010959201388888886,111.5317925347222,0)" xlink:href="#aj"/><use transform="matrix(0.010959201388888886,0,0,0.010959201388888886,124.98969184027774,0)" xlink:href="#ap"/><use transform="matrix(0.010959201388888886,0,0,0.010959201388888886,138.2612847222222,0)" xlink:href="#ar"/><use transform="matrix(0.010959201388888886,0,0,0.010959201388888886,152.00412326388886,0)" xlink:href="#as"/><use transform="matrix(0.010959201388888886,0,0,0.010959201388888886,157.43988715277774,0)" xlink:href="#aa"/></g><path fill="#282c33" d="M613 24c-304 0-509-231-509-576 0-350 205-580 509-580 216 0 392 114 453 309l-173 49c-33-115-133-197-280-197-223 0-326 196-326 419 0 220 103 415 326 415 150 0 252-85 285-206l172 49C1010-95 832 24 613 24" id="at"/><g id="l"><use transform="matrix(0.010959201388888886,0,0,0.010959201388888886,0,0)" xlink:href="#T"/><use transform="matrix(0.010959201388888886,0,0,0.010959201388888886,13.742838541666664,0)" xlink:href="#V"/><use transform="matrix(0.010959201388888886,0,0,0.010959201388888886,19.17860243055555,0)" xlink:href="#ah"/><use transform="matrix(0.010959201388888886,0,0,0.010959201388888886,31.025499131944436,0)" xlink:href="#ad"/><use transform="matrix(0.010959201388888886,0,0,0.010959201388888886,38.47775607638888,0)" xlink:href="#Y"/><use transform="matrix(0.010959201388888886,0,0,0.010959201388888886,51.0808376736111,0)" xlink:href="#W"/><use transform="matrix(0.010959201388888886,0,0,0.010959201388888886,64.34147135416666,0)" xlink:href="#at"/><use transform="matrix(0.010959201388888886,0,0,0.010959201388888886,77.16373697916666,0)" xlink:href="#aa"/><use transform="matrix(0.010959201388888886,0,0,0.010959201388888886,90.24902343749999,0)" xlink:href="#ab"/><use transform="matrix(0.010959201388888886,0,0,0.010959201388888886,96.71495225694443,0)" xlink:href="#T"/><use transform="matrix(0.010959201388888886,0,0,0.010959201388888886,110.45779079861109,0)" xlink:href="#aj"/><use transform="matrix(0.010959201388888886,0,0,0.010959201388888886,123.91569010416664,0)" xlink:href="#ap"/><use transform="matrix(0.010959201388888886,0,0,0.010959201388888886,137.1872829861111,0)" xlink:href="#ar"/><use transform="matrix(0.010959201388888886,0,0,0.010959201388888886,150.93012152777774,0)" xlink:href="#as"/><use transform="matrix(0.010959201388888886,0,0,0.010959201388888886,156.36588541666663,0)" xlink:href="#aa"/></g><use transform="matrix(0.010959201388888886,0,0,0.010959201388888886,0,0)" xlink:href="#ak" id="n"/><path fill="#282c33" d="M338-670V0H158v-1490h180v566c73-149 190-208 336-208 226 0 379 139 379 422V0H872v-695c0-172-96-275-252-275-161 0-282 109-282 300" id="au"/><path fill="#282c33" d="M218-607c0-325 108-727 258-974h175c-155 315-250 682-250 974 0 265 78 531 250 886H476C306-10 218-315 218-607" id="av"/><path fill="#282c33" d="M96 279C273-86 346-350 346-607c0-292-95-659-250-974h175c150 246 258 650 258 974 0 297-91 602-258 886H96" id="aw"/><g id="o"><use transform="matrix(0.010959201388888886,0,0,0.010959201388888886,0,0)" xlink:href="#ah"/><use transform="matrix(0.010959201388888886,0,0,0.010959201388888886,11.846896701388886,0)" xlink:href="#aa"/><use transform="matrix(0.010959201388888886,0,0,0.010959201388888886,25.151367187499993,0)" xlink:href="#Y"/><use transform="matrix(0.010959201388888886,0,0,0.010959201388888886,37.754448784722214,0)" xlink:href="#ae"/><use transform="matrix(0.010959201388888886,0,0,0.010959201388888886,45.831380208333336,0)" xlink:href="#at"/><use transform="matrix(0.010959201388888886,0,0,0.010959201388888886,58.65364583333333,0)" xlink:href="#au"/><use transform="matrix(0.010959201388888886,0,0,0.010959201388888886,71.92523871527777,0)" xlink:href="#av"/><use transform="matrix(0.010959201388888886,0,0,0.010959201388888886,80.11176215277777,0)" xlink:href="#aw"/></g><path fill="#282c33" d="M158 0v-1490h180v865h22l478-493h223L593-638 1096 0H865L456-523 338-412V0H158" id="ax"/><g id="p"><use transform="matrix(0.010959201388888886,0,0,0.010959201388888886,0,0)" xlink:href="#aq"/><use transform="matrix(0.010959201388888886,0,0,0.010959201388888886,13.962022569444443,0)" xlink:href="#Y"/><use transform="matrix(0.010959201388888886,0,0,0.010959201388888886,26.565104166666664,0)" xlink:href="#ae"/><use transform="matrix(0.010959201388888886,0,0,0.010959201388888886,35.36534288194444,0)" xlink:href="#ax"/><use transform="matrix(0.010959201388888886,0,0,0.010959201388888886,47.68348524305556,0)" xlink:href="#av"/><use transform="matrix(0.010959201388888886,0,0,0.010959201388888886,55.87000868055555,0)" xlink:href="#aw"/></g><path fill="#282c33" d="M481 0L54-1118h197c107 314 236 620 325 951 87-331 217-637 324-951h197L670 0H481" id="ay"/><g id="q"><use transform="matrix(0.010959201388888886,0,0,0.010959201388888886,0,0)" xlink:href="#as"/><use transform="matrix(0.010959201388888886,0,0,0.010959201388888886,5.4357638888888875,0)" xlink:href="#aa"/><use transform="matrix(0.010959201388888886,0,0,0.010959201388888886,18.740234374999996,0)" xlink:href="#Y"/><use transform="matrix(0.010959201388888886,0,0,0.010959201388888886,31.01453993055555,0)" xlink:href="#ay"/><use transform="matrix(0.010959201388888886,0,0,0.010959201388888886,43.1902126736111,0)" xlink:href="#aa"/><use transform="matrix(0.010959201388888886,0,0,0.010959201388888886,56.27549913194443,0)" xlink:href="#av"/><use transform="matrix(0.010959201388888886,0,0,0.010959201388888886,64.46202256944443,0)" xlink:href="#aw"/></g><path fill="#282c33" d="M140 405l46-156c120 36 205 19 263-150l32-93L54-1118h197c107 313 237 620 324 950 87-331 219-637 326-950h196L606 167c-68 178-176 259-334 259-64 0-113-12-132-21" id="az"/><g id="r"><use transform="matrix(0.010959201388888886,0,0,0.010959201388888886,0,0)" xlink:href="#aq"/><use transform="matrix(0.010959201388888886,0,0,0.010959201388888886,13.962022569444443,0)" xlink:href="#Y"/><use transform="matrix(0.010959201388888886,0,0,0.010959201388888886,26.236328124999993,0)" xlink:href="#az"/><use transform="matrix(0.010959201388888886,0,0,0.010959201388888886,38.85036892361111,0)" xlink:href="#av"/><use transform="matrix(0.010959201388888886,0,0,0.010959201388888886,47.03689236111111,0)" xlink:href="#aw"/></g><g id="s"><use transform="matrix(0.010959201388888886,0,0,0.010959201388888886,0,0)" xlink:href="#T"/><use transform="matrix(0.010959201388888886,0,0,0.010959201388888886,13.742838541666664,0)" xlink:href="#aa"/><use transform="matrix(0.010959201388888886,0,0,0.010959201388888886,26.828124999999993,0)" xlink:href="#aq"/><use transform="matrix(0.010959201388888886,0,0,0.010959201388888886,40.57096354166666,0)" xlink:href="#aj"/><use transform="matrix(0.010959201388888886,0,0,0.010959201388888886,54.02886284722221,0)" xlink:href="#ah"/><use transform="matrix(0.010959201388888886,0,0,0.010959201388888886,65.87575954861109,0)" xlink:href="#V"/><use transform="matrix(0.010959201388888886,0,0,0.010959201388888886,71.31152343749997,0)" xlink:href="#ad"/><use transform="matrix(0.010959201388888886,0,0,0.010959201388888886,78.65418836805553,0)" xlink:href="#av"/><use transform="matrix(0.010959201388888886,0,0,0.010959201388888886,86.84071180555553,0)" xlink:href="#aw"/></g><g id="t"><use transform="matrix(0.010959201388888886,0,0,0.010959201388888886,0,0)" xlink:href="#ai"/><use transform="matrix(0.010959201388888886,0,0,0.010959201388888886,18.367621527777775,0)" xlink:href="#V"/><use transform="matrix(0.010959201388888886,0,0,0.010959201388888886,23.803385416666668,0)" xlink:href="#ad"/><use transform="matrix(0.010959201388888886,0,0,0.010959201388888886,31.14605034722222,0)" xlink:href="#au"/><use transform="matrix(0.010959201388888886,0,0,0.010959201388888886,44.41764322916666,0)" xlink:href="#T"/><use transform="matrix(0.010959201388888886,0,0,0.010959201388888886,58.16048177083332,0)" xlink:href="#ae"/><use transform="matrix(0.010959201388888886,0,0,0.010959201388888886,66.61002604166666,0)" xlink:href="#Y"/><use transform="matrix(0.010959201388888886,0,0,0.010959201388888886,79.21310763888887,0)" xlink:href="#ai"/><use transform="matrix(0.010959201388888886,0,0,0.010959201388888886,97.58072916666664,0)" xlink:href="#av"/><use transform="matrix(0.010959201388888886,0,0,0.010959201388888886,105.76725260416664,0)" xlink:href="#aw"/></g><g id="u"><use transform="matrix(0.010959201388888886,0,0,0.010959201388888886,0,0)" xlink:href="#ag"/><use transform="matrix(0.010959201388888886,0,0,0.010959201388888886,14.334635416666663,0)" xlink:href="#Y"/><use transform="matrix(0.010959201388888886,0,0,0.010959201388888886,26.937717013888882,0)" xlink:href="#ae"/><use transform="matrix(0.010959201388888886,0,0,0.010959201388888886,35.73795572916666,0)" xlink:href="#ax"/><use transform="matrix(0.010959201388888886,0,0,0.010959201388888886,48.056098090277764,0)" xlink:href="#V"/><use transform="matrix(0.010959201388888886,0,0,0.010959201388888886,53.49186197916666,0)" xlink:href="#W"/><use transform="matrix(0.010959201388888886,0,0,0.010959201388888886,66.7524956597222,0)" xlink:href="#af"/><use transform="matrix(0.010959201388888886,0,0,0.010959201388888886,80.51725260416664,0)" xlink:href="#ac"/><use transform="matrix(0.010959201388888886,0,0,0.010959201388888886,94.91764322916664,0)" xlink:href="#aq"/><use transform="matrix(0.010959201388888886,0,0,0.010959201388888886,108.66048177083331,0)" xlink:href="#aj"/><use transform="matrix(0.010959201388888886,0,0,0.010959201388888886,122.11838107638889,0)" xlink:href="#ad"/><use transform="matrix(0.010959201388888886,0,0,0.010959201388888886,129.24186197916666,0)" xlink:href="#ah"/></g><g id="v"><use transform="matrix(0.010959201388888886,0,0,0.010959201388888886,0,0)" xlink:href="#as"/><use transform="matrix(0.010959201388888886,0,0,0.010959201388888886,5.4357638888888875,0)" xlink:href="#aj"/><use transform="matrix(0.010959201388888886,0,0,0.010959201388888886,18.89366319444444,0)" xlink:href="#at"/><use transform="matrix(0.010959201388888886,0,0,0.010959201388888886,31.935112847222214,0)" xlink:href="#Y"/><use transform="matrix(0.010959201388888886,0,0,0.010959201388888886,44.538194444444436,0)" xlink:href="#ad"/><use transform="matrix(0.010959201388888886,0,0,0.010959201388888886,51.880859374999986,0)" xlink:href="#V"/><use transform="matrix(0.010959201388888886,0,0,0.010959201388888886,57.31662326388888,0)" xlink:href="#aj"/><use transform="matrix(0.010959201388888886,0,0,0.010959201388888886,70.77452256944443,0)" xlink:href="#W"/></g><path fill="#282c33" d="M180 0v-1490h190v644h782v-644h190V0h-190v-678H370V0H180" id="aA"/><g id="w"><use transform="matrix(0.010959201388888886,0,0,0.010959201388888886,0,0)" xlink:href="#ai"/><use transform="matrix(0.010959201388888886,0,0,0.010959201388888886,17.962131076388886,0)" xlink:href="#aj"/><use transform="matrix(0.010959201388888886,0,0,0.010959201388888886,31.420030381944436,0)" xlink:href="#ae"/><use transform="matrix(0.010959201388888886,0,0,0.010959201388888886,40.220269097222214,0)" xlink:href="#ax"/><use transform="matrix(0.010959201388888886,0,0,0.010959201388888886,52.53841145833332,0)" xlink:href="#V"/><use transform="matrix(0.010959201388888886,0,0,0.010959201388888886,57.97417534722221,0)" xlink:href="#W"/><use transform="matrix(0.010959201388888886,0,0,0.010959201388888886,71.23480902777776,0)" xlink:href="#af"/><use transform="matrix(0.010959201388888886,0,0,0.010959201388888886,84.9995659722222,0)" xlink:href="#aA"/><use transform="matrix(0.010959201388888886,0,0,0.010959201388888886,101.67947048611109,0)" xlink:href="#aj"/><use transform="matrix(0.010959201388888886,0,0,0.010959201388888886,115.13736979166664,0)" xlink:href="#ap"/><use transform="matrix(0.010959201388888886,0,0,0.010959201388888886,128.4089626736111,0)" xlink:href="#ae"/><use transform="matrix(0.010959201388888886,0,0,0.010959201388888886,136.85850694444443,0)" xlink:href="#ah"/></g><g id="x"><use transform="matrix(0.010959201388888886,0,0,0.010959201388888886,0,0)" xlink:href="#at"/><use transform="matrix(0.010959201388888886,0,0,0.010959201388888886,12.822265624999996,0)" xlink:href="#aj"/><use transform="matrix(0.010959201388888886,0,0,0.010959201388888886,26.28016493055555,0)" xlink:href="#ah"/><use transform="matrix(0.010959201388888886,0,0,0.010959201388888886,38.127061631944436,0)" xlink:href="#ad"/><use transform="matrix(0.010959201388888886,0,0,0.010959201388888886,45.46972656249999,0)" xlink:href="#ag"/><use transform="matrix(0.010959201388888886,0,0,0.010959201388888886,59.68381076388888,0)" xlink:href="#aa"/><use transform="matrix(0.010959201388888886,0,0,0.010959201388888886,72.7690972222222,0)" xlink:href="#ae"/><use transform="matrix(0.010959201388888886,0,0,0.010959201388888886,81.56933593749997,0)" xlink:href="#aA"/><use transform="matrix(0.010959201388888886,0,0,0.010959201388888886,98.24924045138887,0)" xlink:href="#aj"/><use transform="matrix(0.010959201388888886,0,0,0.010959201388888886,111.70713975694441,0)" xlink:href="#ap"/><use transform="matrix(0.010959201388888886,0,0,0.010959201388888886,124.97873263888886,0)" xlink:href="#ae"/></g><path fill="#282c33" d="M678-1118v154H420V0H240v-964H20v-154h220v-149c0-194 155-293 318-293 85 0 141 18 168 30l-50 154c-19-6-47-17-97-17-111 0-159 58-159 166v109h258" id="aB"/><g id="y"><use transform="matrix(0.010959201388888886,0,0,0.010959201388888886,0,0)" xlink:href="#aB"/><use transform="matrix(0.010959201388888886,0,0,0.010959201388888886,8.307074652777775,0)" xlink:href="#ae"/><use transform="matrix(0.010959201388888886,0,0,0.010959201388888886,16.384006076388886,0)" xlink:href="#aa"/><use transform="matrix(0.010959201388888886,0,0,0.010959201388888886,29.469292534722214,0)" xlink:href="#aa"/><use transform="matrix(0.010959201388888886,0,0,0.010959201388888886,42.55457899305554,0)" xlink:href="#ac"/><use transform="matrix(0.010959201388888886,0,0,0.010959201388888886,56.95496961805554,0)" xlink:href="#aq"/><use transform="matrix(0.010959201388888886,0,0,0.010959201388888886,70.6978081597222,0)" xlink:href="#aj"/><use transform="matrix(0.010959201388888886,0,0,0.010959201388888886,84.15570746527776,0)" xlink:href="#ad"/><use transform="matrix(0.010959201388888886,0,0,0.010959201388888886,91.27918836805553,0)" xlink:href="#ah"/></g><path fill="#282c33" d="M458 0L52-1490h194c108 439 233 855 324 1313 92-459 221-873 331-1313h216c110 438 234 854 330 1307 92-455 216-869 323-1307h196L1558 0h-221l-256-944c-26-95-50-200-73-331-22 122-44 223-73 331L680 0H458" id="aC"/><g id="z"><use transform="matrix(0.010959201388888886,0,0,0.010959201388888886,0,0)" xlink:href="#aC"/><use transform="matrix(0.010959201388888886,0,0,0.010959201388888886,20.97591145833333,0)" xlink:href="#Y"/><use transform="matrix(0.010959201388888886,0,0,0.010959201388888886,33.57899305555555,0)" xlink:href="#as"/><use transform="matrix(0.010959201388888886,0,0,0.010959201388888886,39.014756944444436,0)" xlink:href="#as"/><use transform="matrix(0.010959201388888886,0,0,0.010959201388888886,44.45052083333332,0)" xlink:href="#aa"/><use transform="matrix(0.010959201388888886,0,0,0.010959201388888886,57.53580729166665,0)" xlink:href="#ad"/></g><g id="A"><use transform="matrix(0.010959201388888886,0,0,0.010959201388888886,0,0)" xlink:href="#Y"/><use transform="matrix(0.010959201388888886,0,0,0.010959201388888886,12.60308159722222,0)" xlink:href="#U"/><use transform="matrix(0.010959201388888886,0,0,0.010959201388888886,32.26388888888888,0)" xlink:href="#U"/><use transform="matrix(0.010959201388888886,0,0,0.010959201388888886,51.92469618055554,0)" xlink:href="#aj"/><use transform="matrix(0.010959201388888886,0,0,0.010959201388888886,65.3825954861111,0)" xlink:href="#ap"/><use transform="matrix(0.010959201388888886,0,0,0.010959201388888886,78.65418836805554,0)" xlink:href="#W"/><use transform="matrix(0.010959201388888886,0,0,0.010959201388888886,91.91482204861109,0)" xlink:href="#ad"/></g><g id="B"><use transform="matrix(0.010959201388888886,0,0,0.010959201388888886,0,0)" xlink:href="#ac"/><use transform="matrix(0.010959201388888886,0,0,0.010959201388888886,14.400390624999996,0)" xlink:href="#ad"/><use transform="matrix(0.010959201388888886,0,0,0.010959201388888886,21.85264756944444,0)" xlink:href="#Y"/><use transform="matrix(0.010959201388888886,0,0,0.010959201388888886,34.45572916666666,0)" xlink:href="#ad"/><use transform="matrix(0.010959201388888886,0,0,0.010959201388888886,41.798394097222214,0)" xlink:href="#V"/><use transform="matrix(0.010959201388888886,0,0,0.010959201388888886,47.2341579861111,0)" xlink:href="#ah"/><use transform="matrix(0.010959201388888886,0,0,0.010959201388888886,59.081054687499986,0)" xlink:href="#ad"/><use transform="matrix(0.010959201388888886,0,0,0.010959201388888886,66.42371961805554,0)" xlink:href="#V"/><use transform="matrix(0.010959201388888886,0,0,0.010959201388888886,71.85948350694443,0)" xlink:href="#at"/><use transform="matrix(0.010959201388888886,0,0,0.010959201388888886,84.68174913194443,0)" xlink:href="#ah"/></g><g id="C"><use transform="matrix(0.010959201388888886,0,0,0.010959201388888886,0,0)" xlink:href="#aq"/><use transform="matrix(0.010959201388888886,0,0,0.010959201388888886,13.962022569444443,0)" xlink:href="#Y"/><use transform="matrix(0.010959201388888886,0,0,0.010959201388888886,26.565104166666664,0)" xlink:href="#ae"/><use transform="matrix(0.010959201388888886,0,0,0.010959201388888886,35.36534288194444,0)" xlink:href="#ax"/><use transform="matrix(0.010959201388888886,0,0,0.010959201388888886,47.68348524305556,0)" xlink:href="#aA"/><use transform="matrix(0.010959201388888886,0,0,0.010959201388888886,64.36338975694443,0)" xlink:href="#V"/><use transform="matrix(0.010959201388888886,0,0,0.010959201388888886,69.79915364583331,0)" xlink:href="#ah"/><use transform="matrix(0.010959201388888886,0,0,0.010959201388888886,81.6460503472222,0)" xlink:href="#ad"/><use transform="matrix(0.010959201388888886,0,0,0.010959201388888886,88.76953124999999,0)" xlink:href="#aj"/><use transform="matrix(0.010959201388888886,0,0,0.010959201388888886,102.22743055555556,0)" xlink:href="#ae"/><use transform="matrix(0.010959201388888886,0,0,0.010959201388888886,111.02766927083331,0)" xlink:href="#az"/></g><g id="D"><use transform="matrix(0.010959201388888886,0,0,0.010959201388888886,0,0)" xlink:href="#ad"/><use transform="matrix(0.010959201388888886,0,0,0.010959201388888886,7.342664930555554,0)" xlink:href="#V"/><use transform="matrix(0.010959201388888886,0,0,0.010959201388888886,12.778428819444441,0)" xlink:href="#U"/><use transform="matrix(0.010959201388888886,0,0,0.010959201388888886,32.4392361111111,0)" xlink:href="#aa"/><use transform="matrix(0.010959201388888886,0,0,0.010959201388888886,45.52452256944442,0)" xlink:href="#ag"/><use transform="matrix(0.010959201388888886,0,0,0.010959201388888886,59.73860677083331,0)" xlink:href="#aa"/><use transform="matrix(0.010959201388888886,0,0,0.010959201388888886,72.82389322916664,0)" xlink:href="#ae"/><use transform="matrix(0.010959201388888886,0,0,0.010959201388888886,81.62413194444441,0)" xlink:href="#ag"/><use transform="matrix(0.010959201388888886,0,0,0.010959201388888886,95.95876736111107,0)" xlink:href="#Y"/><use transform="matrix(0.010959201388888886,0,0,0.010959201388888886,108.56184895833329,0)" xlink:href="#ae"/><use transform="matrix(0.010959201388888886,0,0,0.010959201388888886,117.36208767361106,0)" xlink:href="#ax"/><use transform="matrix(0.010959201388888886,0,0,0.010959201388888886,129.68023003472217,0)" xlink:href="#V"/><use transform="matrix(0.010959201388888886,0,0,0.010959201388888886,135.11599392361106,0)" xlink:href="#W"/><use transform="matrix(0.010959201388888886,0,0,0.010959201388888886,148.3766276041666,0)" xlink:href="#af"/></g><g id="E"><use transform="matrix(0.010959201388888886,0,0,0.010959201388888886,0,0)" xlink:href="#ad"/><use transform="matrix(0.010959201388888886,0,0,0.010959201388888886,7.342664930555554,0)" xlink:href="#V"/><use transform="matrix(0.010959201388888886,0,0,0.010959201388888886,12.778428819444441,0)" xlink:href="#U"/><use transform="matrix(0.010959201388888886,0,0,0.010959201388888886,32.4392361111111,0)" xlink:href="#aa"/><use transform="matrix(0.010959201388888886,0,0,0.010959201388888886,45.52452256944442,0)" xlink:href="#ag"/><use transform="matrix(0.010959201388888886,0,0,0.010959201388888886,59.73860677083331,0)" xlink:href="#aa"/><use transform="matrix(0.010959201388888886,0,0,0.010959201388888886,72.82389322916664,0)" xlink:href="#ae"/><use transform="matrix(0.010959201388888886,0,0,0.010959201388888886,81.27343749999997,0)" xlink:href="#an"/><use transform="matrix(0.010959201388888886,0,0,0.010959201388888886,97.97526041666663,0)" xlink:href="#ah"/><use transform="matrix(0.010959201388888886,0,0,0.010959201388888886,109.82215711805551,0)" xlink:href="#aa"/><use transform="matrix(0.010959201388888886,0,0,0.010959201388888886,122.90744357638884,0)" xlink:href="#ae"/></g><path fill="#282c33" d="M98-1322v-168h1126v168H757V0H567v-1322H98" id="aD"/><g id="F"><use transform="matrix(0.010959201388888886,0,0,0.010959201388888886,0,0)" xlink:href="#aD"/><use transform="matrix(0.010959201388888886,0,0,0.010959201388888886,12.734592013888886,0)" xlink:href="#aj"/><use transform="matrix(0.010959201388888886,0,0,0.010959201388888886,26.192491319444432,0)" xlink:href="#ad"/><use transform="matrix(0.010959201388888886,0,0,0.010959201388888886,33.64474826388888,0)" xlink:href="#Y"/><use transform="matrix(0.010959201388888886,0,0,0.010959201388888886,46.2478298611111,0)" xlink:href="#as"/><use transform="matrix(0.010959201388888886,0,0,0.010959201388888886,51.683593749999986,0)" xlink:href="#an"/><use transform="matrix(0.010959201388888886,0,0,0.010959201388888886,68.38541666666666,0)" xlink:href="#ah"/><use transform="matrix(0.010959201388888886,0,0,0.010959201388888886,80.23231336805554,0)" xlink:href="#aa"/><use transform="matrix(0.010959201388888886,0,0,0.010959201388888886,93.31759982638887,0)" xlink:href="#ae"/><use transform="matrix(0.010959201388888886,0,0,0.010959201388888886,101.7671440972222,0)" xlink:href="#ah"/></g><g id="G"><use transform="matrix(0.010959201388888886,0,0,0.010959201388888886,0,0)" xlink:href="#aD"/><use transform="matrix(0.010959201388888886,0,0,0.010959201388888886,12.734592013888886,0)" xlink:href="#aj"/><use transform="matrix(0.010959201388888886,0,0,0.010959201388888886,26.192491319444432,0)" xlink:href="#ad"/><use transform="matrix(0.010959201388888886,0,0,0.010959201388888886,33.64474826388888,0)" xlink:href="#Y"/><use transform="matrix(0.010959201388888886,0,0,0.010959201388888886,46.2478298611111,0)" xlink:href="#as"/><use transform="matrix(0.010959201388888886,0,0,0.010959201388888886,51.683593749999986,0)" xlink:href="#ag"/><use transform="matrix(0.010959201388888886,0,0,0.010959201388888886,66.01822916666664,0)" xlink:href="#Y"/><use transform="matrix(0.010959201388888886,0,0,0.010959201388888886,78.62131076388886,0)" xlink:href="#ae"/><use transform="matrix(0.010959201388888886,0,0,0.010959201388888886,87.42154947916663,0)" xlink:href="#ax"/><use transform="matrix(0.010959201388888886,0,0,0.010959201388888886,99.73969184027773,0)" xlink:href="#V"/><use transform="matrix(0.010959201388888886,0,0,0.010959201388888886,105.17545572916663,0)" xlink:href="#W"/><use transform="matrix(0.010959201388888886,0,0,0.010959201388888886,118.4360894097222,0)" xlink:href="#af"/><use transform="matrix(0.010959201388888886,0,0,0.010959201388888886,132.20084635416663,0)" xlink:href="#ac"/><use transform="matrix(0.010959201388888886,0,0,0.010959201388888886,146.60123697916663,0)" xlink:href="#aq"/><use transform="matrix(0.010959201388888886,0,0,0.010959201388888886,160.3440755208333,0)" xlink:href="#aj"/><use transform="matrix(0.010959201388888886,0,0,0.010959201388888886,173.80197482638883,0)" xlink:href="#ad"/><use transform="matrix(0.010959201388888886,0,0,0.010959201388888886,180.92545572916657,0)" xlink:href="#ah"/></g><g id="H"><use transform="matrix(0.010959201388888886,0,0,0.010959201388888886,0,0)" xlink:href="#ak"/><use transform="matrix(0.010959201388888886,0,0,0.010959201388888886,8.668728298611109,0)" xlink:href="#aD"/><use transform="matrix(0.010959201388888886,0,0,0.010959201388888886,21.403320312499993,0)" xlink:href="#aj"/><use transform="matrix(0.010959201388888886,0,0,0.010959201388888886,34.86121961805554,0)" xlink:href="#ad"/><use transform="matrix(0.010959201388888886,0,0,0.010959201388888886,42.313476562499986,0)" xlink:href="#Y"/><use transform="matrix(0.010959201388888886,0,0,0.010959201388888886,54.91655815972221,0)" xlink:href="#as"/><use transform="matrix(0.010959201388888886,0,0,0.010959201388888886,60.3523220486111,0)" xlink:href="#aA"/><use transform="matrix(0.010959201388888886,0,0,0.010959201388888886,77.03222656249997,0)" xlink:href="#aj"/><use transform="matrix(0.010959201388888886,0,0,0.010959201388888886,90.49012586805553,0)" xlink:href="#ap"/><use transform="matrix(0.010959201388888886,0,0,0.010959201388888886,103.76171874999997,0)" xlink:href="#ae"/><use transform="matrix(0.010959201388888886,0,0,0.010959201388888886,112.21126302083331,0)" xlink:href="#ah"/></g><g id="I"><use transform="matrix(0.010959201388888886,0,0,0.010959201388888886,0,0)" xlink:href="#al"/><use transform="matrix(0.010959201388888886,0,0,0.010959201388888886,16.394965277777775,0)" xlink:href="#am"/><use transform="matrix(0.010959201388888886,0,0,0.010959201388888886,30.839192708333325,0)" xlink:href="#an"/><use transform="matrix(0.010959201388888886,0,0,0.010959201388888886,47.541015624999986,0)" xlink:href="#ao"/></g><g id="J"><use transform="matrix(0.010959201388888886,0,0,0.010959201388888886,0,0)" xlink:href="#ag"/><use transform="matrix(0.010959201388888886,0,0,0.010959201388888886,14.334635416666663,0)" xlink:href="#Y"/><use transform="matrix(0.010959201388888886,0,0,0.010959201388888886,26.937717013888882,0)" xlink:href="#ae"/><use transform="matrix(0.010959201388888886,0,0,0.010959201388888886,35.73795572916666,0)" xlink:href="#ax"/><use transform="matrix(0.010959201388888886,0,0,0.010959201388888886,48.056098090277764,0)" xlink:href="#V"/><use transform="matrix(0.010959201388888886,0,0,0.010959201388888886,53.49186197916666,0)" xlink:href="#W"/><use transform="matrix(0.010959201388888886,0,0,0.010959201388888886,66.7524956597222,0)" xlink:href="#af"/><use transform="matrix(0.010959201388888886,0,0,0.010959201388888886,80.51725260416664,0)" xlink:href="#S"/><use transform="matrix(0.010959201388888886,0,0,0.010959201388888886,96.00260416666664,0)" xlink:href="#at"/><use transform="matrix(0.010959201388888886,0,0,0.010959201388888886,108.82486979166664,0)" xlink:href="#ad"/><use transform="matrix(0.010959201388888886,0,0,0.010959201388888886,116.1675347222222,0)" xlink:href="#V"/><use transform="matrix(0.010959201388888886,0,0,0.010959201388888886,121.60329861111109,0)" xlink:href="#aj"/><use transform="matrix(0.010959201388888886,0,0,0.010959201388888886,135.06119791666663,0)" xlink:href="#W"/><use transform="matrix(0.010959201388888886,0,0,0.010959201388888886,148.32183159722217,0)" xlink:href="#ah"/></g><g id="K"><use transform="matrix(0.010959201388888886,0,0,0.010959201388888886,0,0)" xlink:href="#aC"/><use transform="matrix(0.010959201388888886,0,0,0.010959201388888886,20.97591145833333,0)" xlink:href="#Y"/><use transform="matrix(0.010959201388888886,0,0,0.010959201388888886,33.57899305555555,0)" xlink:href="#as"/><use transform="matrix(0.010959201388888886,0,0,0.010959201388888886,39.014756944444436,0)" xlink:href="#as"/><use transform="matrix(0.010959201388888886,0,0,0.010959201388888886,44.45052083333332,0)" xlink:href="#aa"/><use transform="matrix(0.010959201388888886,0,0,0.010959201388888886,57.53580729166665,0)" xlink:href="#ad"/><use transform="matrix(0.010959201388888886,0,0,0.010959201388888886,64.8784722222222,0)" xlink:href="#S"/><use transform="matrix(0.010959201388888886,0,0,0.010959201388888886,80.3638237847222,0)" xlink:href="#at"/><use transform="matrix(0.010959201388888886,0,0,0.010959201388888886,93.1860894097222,0)" xlink:href="#ad"/><use transform="matrix(0.010959201388888886,0,0,0.010959201388888886,100.52875434027776,0)" xlink:href="#V"/><use transform="matrix(0.010959201388888886,0,0,0.010959201388888886,105.96451822916664,0)" xlink:href="#aj"/><use transform="matrix(0.010959201388888886,0,0,0.010959201388888886,119.4224175347222,0)" xlink:href="#W"/><use transform="matrix(0.010959201388888886,0,0,0.010959201388888886,132.68305121527774,0)" xlink:href="#ah"/></g><path fill="#282c33" d="M180 0v-1490h528c311 0 458 177 458 395 0 191-114 278-244 313v14c139 9 302 137 302 371 0 225-148 397-499 397H180zm190-168h350c232 0 321-102 321-231 0-149-120-277-311-277H370v508zm0-668h328c160 0 286-101 286-255 0-129-87-231-280-231H370v486" id="aE"/><g id="L"><use transform="matrix(0.010959201388888886,0,0,0.010959201388888886,0,0)" xlink:href="#an"/><use transform="matrix(0.010959201388888886,0,0,0.010959201388888886,16.701822916666664,0)" xlink:href="#ah"/><use transform="matrix(0.010959201388888886,0,0,0.010959201388888886,28.54871961805555,0)" xlink:href="#aa"/><use transform="matrix(0.010959201388888886,0,0,0.010959201388888886,41.63400607638888,0)" xlink:href="#ae"/><use transform="matrix(0.010959201388888886,0,0,0.010959201388888886,50.43424479166666,0)" xlink:href="#ao"/><use transform="matrix(0.010959201388888886,0,0,0.010959201388888886,66.63194444444443,0)" xlink:href="#aE"/></g><g id="N"><use transform="matrix(0.010959201388888886,0,0,0.010959201388888886,0,0)" xlink:href="#S"/><use transform="matrix(0.010959201388888886,0,0,0.010959201388888886,15.485351562499996,0)" xlink:href="#T"/><use transform="matrix(0.010959201388888886,0,0,0.010959201388888886,29.22819010416666,0)" xlink:href="#U"/><use transform="matrix(0.010959201388888886,0,0,0.010959201388888886,48.88899739583332,0)" xlink:href="#V"/><use transform="matrix(0.010959201388888886,0,0,0.010959201388888886,54.32476128472221,0)" xlink:href="#W"/><use transform="matrix(0.010959201388888886,0,0,0.010959201388888886,67.58539496527776,0)" xlink:href="#ao"/><use transform="matrix(0.010959201388888886,0,0,0.010959201388888886,83.78309461805553,0)" xlink:href="#aE"/></g><g id="O"><use transform="matrix(0.010959201388888886,0,0,0.010959201388888886,0,0)" xlink:href="#ac"/><use transform="matrix(0.010959201388888886,0,0,0.010959201388888886,14.400390624999996,0)" xlink:href="#ad"/><use transform="matrix(0.010959201388888886,0,0,0.010959201388888886,21.85264756944444,0)" xlink:href="#Y"/><use transform="matrix(0.010959201388888886,0,0,0.010959201388888886,34.45572916666666,0)" xlink:href="#ad"/><use transform="matrix(0.010959201388888886,0,0,0.010959201388888886,41.798394097222214,0)" xlink:href="#V"/><use transform="matrix(0.010959201388888886,0,0,0.010959201388888886,47.2341579861111,0)" xlink:href="#ah"/><use transform="matrix(0.010959201388888886,0,0,0.010959201388888886,59.081054687499986,0)" xlink:href="#ad"/><use transform="matrix(0.010959201388888886,0,0,0.010959201388888886,66.42371961805554,0)" xlink:href="#V"/><use transform="matrix(0.010959201388888886,0,0,0.010959201388888886,71.85948350694443,0)" xlink:href="#at"/><use transform="matrix(0.010959201388888886,0,0,0.010959201388888886,84.68174913194443,0)" xlink:href="#ah"/><use transform="matrix(0.010959201388888886,0,0,0.010959201388888886,96.52864583333331,0)" xlink:href="#ao"/><use transform="matrix(0.010959201388888886,0,0,0.010959201388888886,112.72634548611109,0)" xlink:href="#Y"/><use transform="matrix(0.010959201388888886,0,0,0.010959201388888886,125.3294270833333,0)" xlink:href="#ad"/><use transform="matrix(0.010959201388888886,0,0,0.010959201388888886,132.78168402777774,0)" xlink:href="#Y"/></g><g id="P"><use transform="matrix(0.010959201388888886,0,0,0.010959201388888886,0,0)" xlink:href="#ac"/><use transform="matrix(0.010959201388888886,0,0,0.010959201388888886,14.400390624999996,0)" xlink:href="#ad"/><use transform="matrix(0.010959201388888886,0,0,0.010959201388888886,21.85264756944444,0)" xlink:href="#Y"/><use transform="matrix(0.010959201388888886,0,0,0.010959201388888886,34.45572916666666,0)" xlink:href="#ad"/><use transform="matrix(0.010959201388888886,0,0,0.010959201388888886,41.798394097222214,0)" xlink:href="#V"/><use transform="matrix(0.010959201388888886,0,0,0.010959201388888886,47.2341579861111,0)" xlink:href="#ah"/><use transform="matrix(0.010959201388888886,0,0,0.010959201388888886,59.081054687499986,0)" xlink:href="#ad"/><use transform="matrix(0.010959201388888886,0,0,0.010959201388888886,66.42371961805554,0)" xlink:href="#V"/><use transform="matrix(0.010959201388888886,0,0,0.010959201388888886,71.85948350694443,0)" xlink:href="#at"/><use transform="matrix(0.010959201388888886,0,0,0.010959201388888886,84.68174913194443,0)" xlink:href="#ah"/><use transform="matrix(0.010959201388888886,0,0,0.010959201388888886,96.52864583333331,0)" xlink:href="#aA"/><use transform="matrix(0.010959201388888886,0,0,0.010959201388888886,113.2085503472222,0)" xlink:href="#Y"/><use transform="matrix(0.010959201388888886,0,0,0.010959201388888886,125.81163194444441,0)" xlink:href="#W"/><use transform="matrix(0.010959201388888886,0,0,0.010959201388888886,139.07226562499997,0)" xlink:href="#T"/><use transform="matrix(0.010959201388888886,0,0,0.010959201388888886,152.81510416666663,0)" xlink:href="#as"/><use transform="matrix(0.010959201388888886,0,0,0.010959201388888886,158.25086805555551,0)" xlink:href="#aa"/><use transform="matrix(0.010959201388888886,0,0,0.010959201388888886,171.33615451388886,0)" xlink:href="#ae"/></g><g id="Q"><use transform="matrix(0.010959201388888886,0,0,0.010959201388888886,0,0)" xlink:href="#ah"/><use transform="matrix(0.010959201388888886,0,0,0.010959201388888886,11.846896701388886,0)" xlink:href="#ad"/><use transform="matrix(0.010959201388888886,0,0,0.010959201388888886,19.29915364583333,0)" xlink:href="#Y"/><use transform="matrix(0.010959201388888886,0,0,0.010959201388888886,31.90223524305555,0)" xlink:href="#ad"/><use transform="matrix(0.010959201388888886,0,0,0.010959201388888886,39.2449001736111,0)" xlink:href="#V"/><use transform="matrix(0.010959201388888886,0,0,0.010959201388888886,44.680664062499986,0)" xlink:href="#ah"/><use transform="matrix(0.010959201388888886,0,0,0.010959201388888886,56.52756076388888,0)" xlink:href="#ad"/><use transform="matrix(0.010959201388888886,0,0,0.010959201388888886,63.87022569444443,0)" xlink:href="#V"/><use transform="matrix(0.010959201388888886,0,0,0.010959201388888886,69.30598958333331,0)" xlink:href="#at"/><use transform="matrix(0.010959201388888886,0,0,0.010959201388888886,82.12825520833331,0)" xlink:href="#ah"/><use transform="matrix(0.010959201388888886,0,0,0.010959201388888886,93.9751519097222,0)" xlink:href="#S"/><use transform="matrix(0.010959201388888886,0,0,0.010959201388888886,109.4605034722222,0)" xlink:href="#at"/><use transform="matrix(0.010959201388888886,0,0,0.010959201388888886,122.2827690972222,0)" xlink:href="#ad"/><use transform="matrix(0.010959201388888886,0,0,0.010959201388888886,129.62543402777774,0)" xlink:href="#V"/><use transform="matrix(0.010959201388888886,0,0,0.010959201388888886,135.06119791666663,0)" xlink:href="#aj"/><use transform="matrix(0.010959201388888886,0,0,0.010959201388888886,148.51909722222217,0)" xlink:href="#W"/><use transform="matrix(0.010959201388888886,0,0,0.010959201388888886,161.77973090277771,0)" xlink:href="#ah"/><use transform="matrix(0.010959201388888886,0,0,0.010959201388888886,173.6266276041666,0)" xlink:href="#av"/><use transform="matrix(0.010959201388888886,0,0,0.010959201388888886,181.81315104166657,0)" xlink:href="#aw"/></g><g id="R"><use transform="matrix(0.010959201388888886,0,0,0.010959201388888886,0,0)" xlink:href="#ac"/><use transform="matrix(0.010959201388888886,0,0,0.010959201388888886,14.400390624999996,0)" xlink:href="#ad"/><use transform="matrix(0.010959201388888886,0,0,0.010959201388888886,21.85264756944444,0)" xlink:href="#Y"/><use transform="matrix(0.010959201388888886,0,0,0.010959201388888886,34.45572916666666,0)" xlink:href="#ad"/><use transform="matrix(0.010959201388888886,0,0,0.010959201388888886,41.798394097222214,0)" xlink:href="#V"/><use transform="matrix(0.010959201388888886,0,0,0.010959201388888886,47.2341579861111,0)" xlink:href="#ah"/><use transform="matrix(0.010959201388888886,0,0,0.010959201388888886,59.081054687499986,0)" xlink:href="#ad"/><use transform="matrix(0.010959201388888886,0,0,0.010959201388888886,66.42371961805554,0)" xlink:href="#V"/><use transform="matrix(0.010959201388888886,0,0,0.010959201388888886,71.85948350694443,0)" xlink:href="#at"/><use transform="matrix(0.010959201388888886,0,0,0.010959201388888886,84.68174913194443,0)" xlink:href="#ah"/><use transform="matrix(0.010959201388888886,0,0,0.010959201388888886,96.52864583333331,0)" xlink:href="#S"/><use transform="matrix(0.010959201388888886,0,0,0.010959201388888886,112.01399739583331,0)" xlink:href="#at"/><use transform="matrix(0.010959201388888886,0,0,0.010959201388888886,124.8362630208333,0)" xlink:href="#ad"/><use transform="matrix(0.010959201388888886,0,0,0.010959201388888886,132.17892795138886,0)" xlink:href="#V"/><use transform="matrix(0.010959201388888886,0,0,0.010959201388888886,137.61469184027774,0)" xlink:href="#aj"/><use transform="matrix(0.010959201388888886,0,0,0.010959201388888886,151.0725911458333,0)" xlink:href="#W"/><use transform="matrix(0.010959201388888886,0,0,0.010959201388888886,164.33322482638883,0)" xlink:href="#ah"/></g></defs></g></svg>